HIERARCHY
ROOT Hips
{
    OFFSET 0.000000 0.000000 0.000000
    CHANNELS 6 Xposition Yposition Zposition Zrotation Xrotation Yrotation
    JOINT Spine
    {
        OFFSET -0.000000 7.246840 0.000000
        CHANNELS 3 Zrotation Xrotation Yrotation
        JOINT Spine1
        {
            OFFSET -0.000000 20.289354 0.000000
            CHANNELS 3 Zrotation Xrotation Yrotation
            JOINT Neck
            {
                OFFSET -0.000000 20.206032 1.836912
                CHANNELS 3 Zrotation Xrotation Yrotation
                JOINT Head
                {
                    OFFSET -0.000000 12.372654 -1.767522
                    CHANNELS 3 Zrotation Xrotation Yrotation
                    End Site
                    {
                        OFFSET -0.000000 22.094025 0.000000
                    }
                }
            }
            JOINT LeftShoulder
            {
                OFFSET 3.465871 17.201674 -0.568930
                CHANNELS 3 Zrotation Xrotation Yrotation
                JOINT LeftArm
                {
                    OFFSET 14.070313 0.000000 0.000000
                    CHANNELS 3 Zrotation Xrotation Yrotation
                    JOINT LeftForeArm
                    {
                        OFFSET 26.549477 0.000000 0.000000
                        CHANNELS 3 Zrotation Xrotation Yrotation
                        JOINT LeftHand
                        {
                            OFFSET 18.880413 0.000000 0.000000
                            CHANNELS 3 Zrotation Xrotation Yrotation
                            End Site
                            {
                                OFFSET 13.256415 0.000000 0.000000
                            }
                        }
                    }
                }
            }
            JOINT RightShoulder
            {
                OFFSET -3.526370 17.201674 -0.568930
                CHANNELS 3 Zrotation Xrotation Yrotation
                JOINT RightArm
                {
                    OFFSET -14.070313 0.000000 0.000000
                    CHANNELS 3 Zrotation Xrotation Yrotation
                    JOINT RightForeArm
                    {
                        OFFSET -26.549477 0.000000 0.000000
                        CHANNELS 3 Zrotation Xrotation Yrotation
                        JOINT RightHand
                        {
                            OFFSET -18.880413 0.000000 0.000000
                            CHANNELS 3 Zrotation Xrotation Yrotation
                            End Site
                            {
                                OFFSET -13.256415 0.000000 0.000000
                            }
                        }
                    }
                }
            }
        }
    }
    JOINT LeftUpLeg
    {
        OFFSET 8.837609 0.000000 0.000000
        CHANNELS 3 Zrotation Xrotation Yrotation
        JOINT LeftLeg
        {
            OFFSET -0.000000 -41.345005 0.000000
            CHANNELS 3 Zrotation Xrotation Yrotation
            JOINT LeftFoot
            {
                OFFSET -0.000000 -35.500874 0.000000
                CHANNELS 3 Zrotation Xrotation Yrotation
                JOINT LeftToeBase
                {
                    OFFSET -0.000000 -5.744446 13.256415
                    CHANNELS 3 Zrotation Xrotation Yrotation
                    End Site
                    {
                        OFFSET -0.000000 0.000000 3.535044
                    }
                }
            }
        }
    }
    JOINT RightUpLeg
    {
        OFFSET -8.837609 0.000000 0.000000
        CHANNELS 3 Zrotation Xrotation Yrotation
        JOINT RightLeg
        {
            OFFSET -0.000000 -41.345005 0.000000
            CHANNELS 3 Zrotation Xrotation Yrotation
            JOINT RightFoot
            {
                OFFSET -0.000000 -35.500874 0.000000
                CHANNELS 3 Zrotation Xrotation Yrotation
                JOINT RightToeBase
                {
                    OFFSET -0.000000 -5.744446 13.256415
                    CHANNELS 3 Zrotation Xrotation Yrotation
                    End Site
                    {
                        OFFSET -0.000000 0.000000 3.535044
                    }
                }
            }
        }
    }
}
MOTION
Frames:    4
Frame Time:    0.010000
0.182159    82.332008    -14.865170    2.573988    1.862962    2.037041    -4.904951    -13.500969    -0.707606    0.320669    10.092226    -0.155271    5.457181    21.595119    -0.412077    -4.566140    -8.228128    -1.120568    13.581317    5.735238    12.040224    -85.679596    38.705135    4.443500    5.925214    -18.844845    -53.402378    -58.286182    -17.136997    2.129812    -11.363801    9.864199    -0.607283    61.661160    35.567780    -1.407701    -14.681207    -30.433540    92.161110    2.017748    -16.267611    3.573486    0.383402    7.989723    -1.041946    -1.855529    -8.822806    -6.065445    3.064125    0.577005    -0.545722    -1.165081    -1.296442    1.643833    -7.399851    2.525505    -3.292508    4.664511    1.478395    4.434655    1.430797    -7.631532    -10.623656    -0.581737    -0.069388    1.044003    
0.179452    82.321213    -14.870204    2.572979    1.856987    2.073528    -4.972422    -13.293004    -0.752810    0.551921    9.886644    -0.220722    5.469246    21.425968    -0.391148    -4.975479    -8.041638    -1.186195    13.972600    5.746267    11.928552    -85.018471    38.601120    4.877227    5.287404    -19.401295    -54.899448    -58.536728    -17.704872    1.711680    -12.060598    9.901464    -0.688421    60.185658    35.442459    -1.532795    -13.265390    -30.876205    92.340057    5.605764    -18.069338    3.362108    0.421176    7.947027    -1.107137    -1.906484    -8.736703    -6.061489    3.077053    0.541042    -0.540636    -1.158588    -1.285004    1.634558    -7.392934    2.552760    -3.363418    4.661536    1.441599    4.418575    1.448405    -7.608603    -10.567457    -0.567150    -0.079785    1.017941    
0.174547    82.338028    -14.867496    2.543464    1.775918    2.057518    -5.007260    -13.064627    -0.819227    0.743023    9.723732    -0.308642    5.590643    21.406242    -0.339457    -5.496866    -8.019744    -1.237107    14.283078    5.849218    11.902814    -84.157661    38.573486    5.266200    4.554134    -20.129354    -56.554756    -58.838917    -18.629444    1.527287    -12.691681    9.897224    -0.582862    58.602074    35.318584    -1.751907    -11.970282    -31.394470    92.307732    9.492809    -19.844328    3.423755    0.479536    7.993128    -1.111336    -1.950829    -8.663092    -6.046809    3.069145    0.515046    -0.550949    -1.161690    -1.325897    1.639345    -7.351237    2.640098    -3.330314    4.647404    1.416685    4.399357    1.460799    -7.604218    -10.556641    -0.593421    -0.067947    1.064956    
0.178246    82.349915    -14.866265    2.536838    1.719984    2.063289    -5.030213    -12.840114    -0.918596    0.937884    9.491551    -0.430246    5.299443    21.485611    -0.218522    -5.580077    -8.055216    -1.139702    14.468027    5.987415    11.875050    -83.076714    38.394920    5.610065    3.746551    -20.752052    -58.123646    -59.277542    -19.398640    1.128077    -13.411471    10.170650    -0.600493    56.824211    35.040051    -1.364995    -10.888867    -31.897144    91.824898    14.183042    -21.379698    3.860745    0.499274    8.013542    -1.121621    -1.945066    -8.591896    -6.151412    3.041281    0.480540    -0.453586    -1.167853    -1.293479    1.647715    -7.343906    2.700530    -3.353328    4.645827    1.409334    4.393632    1.466841    -7.596874    -10.506100    -0.563995    -0.094545    1.012440    
